<?xml version="1.0" encoding="UTF-8"?>
<svg version="1.1" xmlns="http://www.w3.org/2000/svg" width="64" height="64">
<path d="M0 0 C2.5625 1.75 2.5625 1.75 4 4 C4 5.32 4 6.64 4 8 C4.99 8.33 5.98 8.66 7 9 C7.125 11.875 7.125 11.875 7 15 C6.34 15.66 5.68 16.32 5 17 C5.66 18.65 6.32 20.3 7 22 C7.66 22 8.32 22 9 22 C9.66 20.35 10.32 18.7 11 17 C10.34 16.34 9.68 15.68 9 15 C8.875 11.875 8.875 11.875 9 9 C9.99 8.67 10.98 8.34 12 8 C12.0825 7.236875 12.165 6.47375 12.25 5.6875 C13 3 13 3 14.5 1.1875 C18.29864835 -0.61685797 21.87395331 -0.68893624 26 0 C28.5625 1.75 28.5625 1.75 30 4 C30 5.32 30 6.64 30 8 C30.99 8.33 31.98 8.66 33 9 C33.125 11.875 33.125 11.875 33 15 C32.34 15.66 31.68 16.32 31 17 C31.495 17.66 31.99 18.32 32.5 19 C34 22 34 22 34 30 C16.84 30 -0.32 30 -18 30 C-18 21 -18 21 -15 17 C-15.66 16.34 -16.32 15.68 -17 15 C-17.125 11.875 -17.125 11.875 -17 9 C-16.01 8.67 -15.02 8.34 -14 8 C-13.9175 7.236875 -13.835 6.47375 -13.75 5.6875 C-13 3 -13 3 -11.5 1.1875 C-7.70135165 -0.61685797 -4.12604669 -0.68893624 0 0 Z M-9.8125 4.0625 C-11.64085164 7.04560004 -11.88025472 9.52738683 -12 13 C-10.86349056 15.37633793 -9.85558971 17.14441029 -8 19 C-3.91603873 19.37559919 -3.91603873 19.37559919 -0.1875 17.9375 C1.64085164 14.95439996 1.88025472 12.47261317 2 9 C0.86349056 6.62366207 -0.14441029 4.85558971 -2 3 C-6.08396127 2.62440081 -6.08396127 2.62440081 -9.8125 4.0625 Z M16.1875 4.0625 C14.35914836 7.04560004 14.11974528 9.52738683 14 13 C15.13650944 15.37633793 16.14441029 17.14441029 18 19 C22.08396127 19.37559919 22.08396127 19.37559919 25.8125 17.9375 C27.64085164 14.95439996 27.88025472 12.47261317 28 9 C26.86349056 6.62366207 25.85558971 4.85558971 24 3 C19.91603873 2.62440081 19.91603873 2.62440081 16.1875 4.0625 Z M-9 22 C-9 22.33 -9 22.66 -9 23 C-6.36 23 -3.72 23 -1 23 C-1 22.67 -1 22.34 -1 22 C-3.64 22 -6.28 22 -9 22 Z M17 22 C17 22.33 17 22.66 17 23 C19.64 23 22.28 23 25 23 C25 22.67 25 22.34 25 22 C22.36 22 19.72 22 17 22 Z M-15 23 C-15.33 24.65 -15.66 26.3 -16 28 C-8.74 28 -1.48 28 6 28 C5.67 26.35 5.34 24.7 5 23 C4.38125 23.33 3.7625 23.66 3.125 24 C-2.24999892 25.71999966 -7.75000108 25.71999966 -13.125 24 C-13.74375 23.67 -14.3625 23.34 -15 23 Z M11 23 C10.67 24.65 10.34 26.3 10 28 C17.26 28 24.52 28 32 28 C31.67 26.35 31.34 24.7 31 23 C30.38125 23.33 29.7625 23.66 29.125 24 C23.75000108 25.71999966 18.24999892 25.71999966 12.875 24 C12.25625 23.67 11.6375 23.34 11 23 Z " fill="#A230FF" transform="translate(24,28)"/>
<path d="M0 0 C1.47726563 -0.02900391 1.47726563 -0.02900391 2.984375 -0.05859375 C7.71105989 -0.02665669 10.23186396 0.07415307 14.1484375 2.8828125 C16.53384657 6.41563353 16.73241077 8.33183686 16.484375 12.47265625 C15.679593 16.04874402 13.9157651 17.53325547 11 19.625 C9.02111039 20.35193904 7.02045442 21.02316251 5 21.625 C4.319375 22.2025 3.63875 22.78 2.9375 23.375 C2.298125 23.7875 1.65875 24.2 1 24.625 C-2.13759973 23.80324769 -3.70255875 22.92244125 -6 20.625 C-7.7015625 20.191875 -7.7015625 20.191875 -9.4375 19.75 C-13 18.625 -13 18.625 -14.9375 17.0625 C-16.55563599 13.35030567 -17.0108817 9.56876874 -16 5.625 C-11.82163218 -0.59828936 -6.85212235 -0.1345312 0 0 Z M-13 6.625 C-13.57770991 11.22836729 -13.57770991 11.22836729 -11.7265625 15.2421875 C-9.87680027 16.72367128 -8.28538304 17.50611825 -6.0625 18.3125 C-5.39347656 18.56386719 -4.72445313 18.81523437 -4.03515625 19.07421875 C0.08144495 20.18830852 2.89922193 19.45712908 6.625 17.75 C7.78902344 17.22792969 7.78902344 17.22792969 8.9765625 16.6953125 C11.14692969 15.67435364 11.14692969 15.67435364 13 13.625 C13.50814856 8.94290006 13.50814856 8.94290006 11.75 4.75 C8.1125867 2.41166288 4.29540439 2.46418918 0.0625 2.4375 C-0.95714844 2.42332031 -1.97679687 2.40914063 -3.02734375 2.39453125 C-7.225934 2.72004613 -10.01023466 3.63523466 -13 6.625 Z " fill="#3C5DFF" transform="translate(32,5.375)"/>
<path d="M0 0 C5.94 0 11.88 0 18 0 C18 0.66 18 1.32 18 2 C12.06 2 6.12 2 0 2 C0 1.34 0 0.68 0 0 Z " fill="#2F64FF" transform="translate(23,12)"/>
<path d="M0 0 C3.3 0 6.6 0 10 0 C10 0.66 10 1.32 10 2 C6.7 2 3.4 2 0 2 C0 1.34 0 0.68 0 0 Z " fill="#3D5DFF" transform="translate(27,16)"/>
<path d="M0 0 C1.98 0 3.96 0 6 0 C6 0.99 6 1.98 6 3 C4.02 3 2.04 3 0 3 C0 2.01 0 1.02 0 0 Z " fill="#C3B2FF" transform="translate(42,43)"/>
<path d="M0 0 C1.98 0 3.96 0 6 0 C6 0.99 6 1.98 6 3 C4.02 3 2.04 3 0 3 C0 2.01 0 1.02 0 0 Z " fill="#C3B2FF" transform="translate(16,43)"/>
<path d="M0 0 C0.99 0 1.98 0 3 0 C3 0.99 3 1.98 3 3 C1.68 2.67 0.36 2.34 -1 2 C-0.67 1.34 -0.34 0.68 0 0 Z " fill="#B7B5FF" transform="translate(47,38)"/>
<path d="M0 0 C1.32 0.33 2.64 0.66 4 1 C3.67 1.66 3.34 2.32 3 3 C2.01 3 1.02 3 0 3 C0 2.01 0 1.02 0 0 Z " fill="#B7B4FF" transform="translate(40,38)"/>
<path d="M0 0 C0.99 0 1.98 0 3 0 C3 0.99 3 1.98 3 3 C1.68 2.67 0.36 2.34 -1 2 C-0.67 1.34 -0.34 0.68 0 0 Z " fill="#B7B5FF" transform="translate(21,38)"/>
<path d="M0 0 C1.32 0.33 2.64 0.66 4 1 C3.67 1.66 3.34 2.32 3 3 C2.01 3 1.02 3 0 3 C0 2.01 0 1.02 0 0 Z " fill="#B7B4FF" transform="translate(14,38)"/>
<path d="M0 0 C1.32 0 2.64 0 4 0 C4 0.66 4 1.32 4 2 C2.68 2 1.36 2 0 2 C0 1.34 0 0.68 0 0 Z " fill="#4C57FF" transform="translate(30,20)"/>
</svg>
